<svg width="61" height="86" viewBox="0 0 61 86" fill="none" xmlns="http://www.w3.org/2000/svg">
<path d="M15.3288 47.1104C23.6373 44.3362 31.9051 45.4228 37.671 46.8561C41.8544 47.9023 46.0784 49.168 49.8487 51.3296C55.184 54.3697 59.5594 59.531 59.6001 65.9291C59.527 70.5384 57.6339 74.9347 54.3287 78.1705C51.0145 81.3763 46.7983 83.5067 42.2384 84.2797C34.8084 85.6379 26.9538 83.7364 20.6002 79.6559C14.2466 75.5755 9.35929 69.5068 6.17669 62.6983C2.27844 54.3755 0.66678 44.9604 1.0566 35.8227C1.5337 24.3962 3.20937 9.65799 11.5819 1" stroke="#2D2D2D" stroke-linecap="round" stroke-linejoin="round"/>
<path d="M10.3733 6.45026C10.0707 4.49094 10.9958 2.88996 11.5776 0.999995C10.0405 1.76726 8.55034 2.62415 7.11502 3.56618" stroke="#2D2D2D" stroke-linecap="round" stroke-linejoin="round"/>
<path d="M20.0543 59.608C22.5043 59.608 24.1983 60.994 24.1983 63.346C24.1983 65.628 22.5883 67.168 19.9983 67.168C18.4723 67.168 17.2823 66.622 16.7083 65.838L16.6943 67H15.3643V57.032H16.8623V60.742C17.4783 60.042 18.6263 59.608 20.0543 59.608ZM19.8023 65.936C21.5803 65.936 22.7003 64.984 22.7003 63.346C22.7003 61.61 21.5663 60.826 19.8023 60.826C18.0663 60.826 16.7923 61.68 16.7923 63.304C16.7923 64.928 18.0523 65.936 19.8023 65.936ZM34.263 65.922H34.795V67H33.773C32.807 67 32.317 66.622 32.233 65.866C31.659 66.636 30.497 67.182 28.719 67.182C26.633 67.182 25.555 66.51 25.555 65.054C25.555 63.724 26.367 63.066 28.663 62.842L31.071 62.604C31.827 62.534 32.023 62.38 32.023 62.044V61.946C32.023 61.232 31.631 60.728 29.755 60.728C28.159 60.728 27.571 61.036 27.417 61.96L25.947 61.946C26.115 60.35 27.277 59.566 29.825 59.566C32.373 59.566 33.521 60.364 33.521 62.044V65.306C33.521 65.698 33.633 65.922 34.263 65.922ZM29.041 66.09C30.777 66.09 31.939 65.334 32.023 64.424V63.416C31.883 63.458 31.743 63.5 31.575 63.514L28.985 63.794C27.529 63.948 27.025 64.242 27.025 64.984C27.025 65.796 27.683 66.09 29.041 66.09ZM40.0935 67.196C37.4335 67.196 35.7395 65.866 35.7395 63.444C35.7395 61.008 37.4195 59.58 40.1495 59.58C42.4315 59.58 43.8455 60.518 44.1395 62.198H42.7115C42.4595 61.246 41.6335 60.77 40.1775 60.77C38.2315 60.77 37.2375 61.722 37.2375 63.388C37.2375 65.054 38.3015 66.02 40.1635 66.02C41.6055 66.02 42.4315 65.432 42.6975 64.438H44.1255C43.8035 66.16 42.4455 67.196 40.0935 67.196ZM53.7642 59.776L49.9982 62.506L54.0442 67H52.2662L50.0822 64.55L48.9762 63.248L47.2822 64.396V67H45.7842V57.032H47.2822V61.176L47.2122 63.066L51.7902 59.776H53.7642Z" fill="black"/>
</svg>
